<svg width="15" height="18" viewBox="0 0 15 18" fill="none" xmlns="http://www.w3.org/2000/svg">
<path d="M7.2 9C7.695 9 8.11875 8.82375 8.47125 8.47125C8.82375 8.11875 9 7.695 9 7.2C9 6.705 8.82375 6.28125 8.47125 5.92875C8.11875 5.57625 7.695 5.4 7.2 5.4C6.705 5.4 6.28125 5.57625 5.92875 5.92875C5.57625 6.28125 5.4 6.705 5.4 7.2C5.4 7.695 5.57625 8.11875 5.92875 8.47125C6.28125 8.82375 6.705 9 7.2 9ZM7.2 15.615C9.03 13.935 10.3875 12.4087 11.2725 11.0362C12.1575 9.66375 12.6 8.445 12.6 7.38C12.6 5.745 12.0788 4.40625 11.0363 3.36375C9.99375 2.32125 8.715 1.8 7.2 1.8C5.685 1.8 4.40625 2.32125 3.36375 3.36375C2.32125 4.40625 1.8 5.745 1.8 7.38C1.8 8.445 2.2425 9.66375 3.1275 11.0362C4.0125 12.4087 5.37 13.935 7.2 15.615ZM7.2 18C4.785 15.945 2.98125 14.0362 1.78875 12.2737C0.59625 10.5112 0 8.88 0 7.38C0 5.13 0.72375 3.3375 2.17125 2.0025C3.61875 0.667498 5.295 -1.90735e-06 7.2 -1.90735e-06C9.105 -1.90735e-06 10.7812 0.667498 12.2288 2.0025C13.6763 3.3375 14.4 5.13 14.4 7.38C14.4 8.88 13.8038 10.5112 12.6113 12.2737C11.4188 14.0362 9.615 15.945 7.2 18Z" fill="#475569"/>
</svg>
